<?xml version="1.0" encoding="UTF-8"?>
<svg id="WonderTax-Labs-Logo-Dark-Mode" xmlns="http://www.w3.org/2000/svg" data-name="WonderTax-Labs-Logo-Dark-Mode" viewBox="0 0 536.1019 530.6354">
  <defs>
    <style>
      .wtl-inside {
        fill: #7edd47;
      }

      .wtl-inside, .wtl-bottle {
        stroke-width: 0px;
      }

      .wtl-bottle {
        fill: #e1e4d9;
      }
    </style>
  </defs>
  <path class="wtl-bottle" d="M368.5116,193.5141l29.2242-50.5972c.6979-1.2213.2617-2.8788-.9596-3.5767l-83.7471-48.4163c-1.2213-.6979-2.8788-.2617-3.5767.9596l-29.2242,50.6844c-.5234.9596-1.6575,1.483-2.7043,1.3085-61.589-10.2067-123.2653,18.7559-154.496,73.017-41.3501,71.6212-16.7494,163.5686,54.959,204.9187,71.7957,41.4374,163.5686,16.8366,204.9187-54.959,31.2307-54.1739,25.5603-122.044-14.0451-170.2858-.6979-.8724-.7851-2.0064-.2617-2.966l-.0872-.0872ZM192.9043,395.7284c-57.4017-33.1499-77.0299-106.6031-43.88-164.0047,10.4684-18.1452,25.4731-33.2371,43.6183-43.7055h.1745c25.5603-14.9175,55.7442-19.7155,84.7067-13.6961l15.1792,3.1405c1.1341.2617,2.2682-.2617,2.7916-1.2213l25.0369-43.3566c.6979-1.2213,2.3554-1.6575,3.5767-.9596l31.8413,18.4069c1.2213.6979,1.6575,2.3554.9596,3.5767l-25.0369,43.2693c-.5234.9596-.4362,2.1809.3489,3.0533l10.2939,11.5152c44.1417,49.4631,39.9543,125.2717-9.5088,169.5006-38.6458,34.5457-95.0879,40.3905-140.0147,14.4813h-.0872Z"/>
  <path class="wtl-inside" d="M228.0607,385.1721c60.7167,15.0919,97.5305-27.9157,105.5562-44.6651.6979-1.5702-1.2213-2.966-2.3554-1.6575-8.8981,10.0322-26.4327,19.1048-48.1546,12.5621-23.7283-7.5896-37.3373-32.3648-30.969-56.4421,6.7172-24.8624-8.113-50.51-32.9754-57.14-23.9901-6.8045-50.161,6.9789-57.5761,34.7202-12.2131,47.9801,16.5749,99.3624,66.4743,112.5352v.0872Z"/>
</svg>