<?xml version="1.0" encoding="UTF-8"?>
<svg id="WonderTax Labs Horizontal Logo with Word Mark - Dark Mode" data-name="WonderTax Labs Horizontal Logo with Word Mark - Dark Mode" xmlns="http://www.w3.org/2000/svg" viewBox="0 0 2472.6209 583.7901">
  <defs>
    <style>
      .wtl-bottle {
        fill: #7edd47;
      }

      .wtl-bottle, .wtl-inside {
        stroke-width: 0px;
      }

      .wtl-inside {
        fill: #e1e4d9;
      }
    </style>
  </defs>
  <g id="Combined_Wordmark_and_Logo_Horizontal_Dark" data-name="Combined Wordmark and Logo Horizontal_Dark">
    <g>
      <path class="wtl-inside" d="M116.4798,256.3303h37.4385l31.499,81.3574h.3599l31.4985-81.3574h34.9189l30.9585,81.3574h.3599l30.0591-81.3574h34.0186l-47.5181,118.4355h-37.9785l-29.3389-76.4971h-.3599l-30.4189,76.4971h-37.978l-47.5186-118.4355Z"/>
      <path class="wtl-inside" d="M339.4998,330.4875c0-23.9385,17.2793-46.4385,62.4575-46.4385s62.4575,22.5,62.4575,46.4385c0,24.1191-16.9194,46.0781-62.4575,46.0781-45.7183,0-62.4575-21.959-62.4575-46.0781ZM432.3758,330.4875c0-12.5996-8.0996-23.3994-30.4185-23.3994-22.499,0-30.4189,10.7998-30.4189,23.3994,0,12.2393,7.9199,23.0391,30.4189,23.0391,22.3188,0,30.4185-10.6191,30.4185-23.0391Z"/>
      <path class="wtl-inside" d="M478.8182,285.8499h32.0386l-.3599,25.9189h.3599c5.5801-16.9199,19.2593-27.7197,47.1582-27.7197,34.3789,0,45.7183,16.2002,45.7183,37.7988v52.918h-32.0386v-44.2783c0-12.0596-6.6602-21.5986-28.2588-21.5986-17.4595,0-32.5791,7.5596-32.5791,25.3789v40.498h-32.0386v-88.916Z"/>
      <path class="wtl-inside" d="M617.2371,329.2278c0-24.6592,19.6191-45.1787,55.4375-45.1787,22.1392,0,33.6587,6.4805,38.8784,16.0195h.3604v-51.2979h32.0386v125.9951h-32.0386c.1797-4.5.54-13.1396.7197-19.7988h-.3599c-4.1401,12.0596-15.4795,21.5986-41.3984,21.5986-34.5586,0-53.6377-19.0791-53.6377-47.3379ZM711.9134,329.9475v-2.1602c0-10.7988-10.4399-20.6992-32.0391-20.6992-20.1592,0-30.7783,9.54-30.7783,22.3193,0,14.7598,11.1592,24.1191,30.2383,24.1191,20.8794,0,32.5791-13.1396,32.5791-23.5791Z"/>
      <path class="wtl-inside" d="M876.6111,336.967h-85.4966c1.6201,11.1602,8.8198,19.4395,30.2388,19.4395,19.6196,0,25.5591-4.8594,26.8188-10.9795h28.439c-.8999,17.0996-15.8394,31.1387-55.2578,31.1387-48.2378,0-62.6372-22.8594-62.6372-45.3584,0-28.9785,21.959-47.1582,60.8374-47.1582,39.2383,0,57.0576,16.5596,57.0576,45.5391v7.3789ZM848.1722,319.6877c0-8.0996-6.1196-15.4785-26.8188-15.4785-18.7192,0-26.8188,5.7598-29.5186,16.1992h56.3374v-.7207Z"/>
      <path class="wtl-inside" d="M891.0145,285.8499h32.0386l-.54,25.7383h.54c5.04-14.7588,17.2793-27.5391,40.6787-27.5391,29.5186,0,38.8784,16.2002,38.8784,38.5186,0,7.5596-.54,14.9395-.8999,18.3594h-29.6992c.1802-1.9795.3604-5.5791.3604-8.999,0-14.9395-4.5-23.0391-19.9795-23.0391-20.519,0-29.3389,15.6592-29.3389,31.1387v34.7383h-32.0386v-88.916Z"/>
      <path class="wtl-inside" d="M1059.3108,281.8899h-46.6177v-25.5596h127.7944v25.5596h-46.6182v92.876h-34.5586v-92.876Z"/>
      <path class="wtl-inside" d="M1135.9925,348.3069c0-14.5791,9.1797-25.9189,34.1987-25.9189h49.8579v-1.2598c0-12.0596-7.1997-16.9189-27.5391-16.9189-18.7192,0-23.3989,5.2197-23.3989,10.4395,0,.1797,0,.7197.1802,1.6191h-30.2388c-.1802-1.6191-.1802-2.8799-.1802-3.2393,0-16.9199,15.2993-28.9795,54.8979-28.9795,38.6982,0,58.3174,14.4004,58.3174,40.1387v50.5781h-32.0386c.3599-6.1201.8999-14.2197.8999-19.7988h-.1802c-3.5996,12.7793-14.2192,21.5986-42.2979,21.5986-32.7588,0-42.4785-15.4795-42.4785-28.2588ZM1220.0491,339.6672v-.7197h-40.1387c-10.7993,0-15.479,1.7998-15.479,7.5596,0,5.5801,6.1196,9.8994,23.0391,9.8994,21.5991,0,32.5786-9.3594,32.5786-16.7393Z"/>
      <path class="wtl-inside" d="M1305.7293,328.8674l-41.0381-43.0176h41.5781l23.0391,26.459,22.6792-26.459h36.1787l-41.9385,43.0176,43.7383,45.8984h-41.5786l-24.1187-27.8984-23.0391,27.8984h-38.3389l42.8384-45.8984Z"/>
    </g>
    <g>
      <path class="wtl-inside" d="M1855.8152,256.3303h34.5586v91.0762h70.1968v27.3594h-104.7554v-118.4355Z"/>
      <path class="wtl-inside" d="M1972.2728,348.3069c0-14.5791,9.1797-25.9189,34.1987-25.9189h49.8579v-1.2598c0-12.0596-7.1997-16.9189-27.5391-16.9189-18.7192,0-23.3989,5.2197-23.3989,10.4395,0,.1797,0,.7197.1802,1.6191h-30.2388c-.1802-1.6191-.1802-2.8799-.1802-3.2393,0-16.9199,15.2993-28.9795,54.8979-28.9795,38.6982,0,58.3174,14.4004,58.3174,40.1387v50.5781h-32.0386c.3599-6.1201.8999-14.2197.8999-19.7988h-.1802c-3.5996,12.7793-14.2192,21.5986-42.2979,21.5986-32.7588,0-42.4785-15.4795-42.4785-28.2588ZM2056.3294,339.6672v-.7197h-40.1387c-10.7993,0-15.479,1.7998-15.479,7.5596,0,5.5801,6.1196,9.8994,23.0391,9.8994,21.5991,0,32.5786-9.3594,32.5786-16.7393Z"/>
      <path class="wtl-inside" d="M2135.5301,357.8469h-.1802c0,4.6797.3599,11.6992.7202,16.9189h-32.0391v-125.9951h32.0391v40.6787c0,4.6797-.1802,11.3398-.3604,14.9395h.3604c3.7798-10.2598,15.1191-20.3398,40.3184-20.3398,36.3584,0,54.3574,17.0996,54.3574,44.459,0,31.8584-20.1592,48.0576-54.3574,48.0576-27.7192,0-38.3384-12.0596-40.8584-18.7188ZM2198.7073,329.4075c0-13.499-8.9995-22.3193-29.6987-22.3193-20.8794,0-32.9385,10.0801-32.9385,24.6592v.54c0,11.5195,10.6196,21.2393,33.1187,21.2393,20.519,0,29.5186-7.5596,29.5186-24.1191Z"/>
      <path class="wtl-inside" d="M2243.3504,345.2473h30.2388c.1797,5.7598,2.52,11.1592,24.6592,11.1592,21.4189,0,25.7388-3.5996,25.7388-9,0-2.6992-1.6201-5.0391-7.3799-5.7598-6.8394-.8994-17.2793-.8994-26.9985-1.4395-17.4595-.7197-30.0591-2.7002-36.7188-6.6602-6.6597-3.959-9.5396-10.6191-9.5396-18.1787,0-18.7197,19.2593-31.3193,54.8979-31.3193,42.6582,0,52.3774,14.5801,52.3774,31.8594h-30.2388c-.1797-6.4795-3.2397-11.6992-21.2388-11.6992-17.6396,0-23.7593,3.5996-23.7593,9.1787,0,3.4199,1.98,5.2197,8.46,6.2998,6.1196.9004,15.2993.9004,27.1787,1.6201,13.3193.7197,25.3789,1.7998,32.7588,5.2197,8.2793,3.7803,12.2393,10.7998,12.2393,19.7998,0,14.3994-10.0796,30.2383-57.7773,30.2383s-54.8979-17.8193-54.8979-31.3184Z"/>
    </g>
    <path class="wtl-inside" d="M2364.5486,371.0881h-4.7222v-1.8613h11.6162v1.8613h-4.7568v9.8584h-2.1372v-9.8584ZM2373.7864,369.2268h3.4814l3.2061,6.583h.0688l3.2056-6.583h3.4814v11.7197h-2.1372v-9.5488l-.2412-.0342-3.9985,8.1348h-.6895l-3.9985-8.1348-.2412.0342v9.5488h-2.1372v-11.7197Z"/>
    <g>
      <path class="wtl-inside" d="M1743.5174,208.7898l33.3839-57.799c.7972-1.3952.2989-3.2886-1.0962-4.0858l-95.6674-55.3077c-1.3951-.7972-3.2886-.299-4.0858,1.0962l-33.3839,57.8987c-.5979,1.0962-1.8934,1.6941-3.0893,1.4948-70.3554-11.6595-140.8104,21.4255-176.4864,83.41-47.2358,81.8155-19.1335,186.8504,62.7817,234.0861,82.0149,47.3354,186.8504,19.2331,234.0861-62.7817,35.6759-61.8848,29.1985-139.4153-16.0442-194.5237-.7972-.9965-.8969-2.292-.2989-3.3882l-.0996-.0996ZM1542.9148,439.7867c-65.572-37.8683-87.9941-121.7766-50.1257-187.3486,11.9584-20.7279,29.0988-37.968,49.8268-49.9264h.1993c29.1985-17.0408,63.6786-22.5217,96.7636-15.6456l17.3397,3.5875c1.2955.299,2.591-.299,3.1889-1.3952l28.6006-49.5278c.7972-1.3952,2.6906-1.8934,4.0858-1.0962l36.3735,21.0269c1.3951.7972,1.8934,2.6906,1.0962,4.0858l-28.6006,49.4281c-.5979,1.0962-.4983,2.4913.3986,3.4879l11.7591,13.1543c50.4247,56.5035,45.6413,143.1025-10.8622,193.6268-44.1465,39.4628-108.6223,46.1396-159.9439,16.5425h-.0996Z"/>
      <path class="wtl-bottle" d="M1583.0752,427.7278c69.3589,17.24,111.4126-31.8891,120.5808-51.0226.7972-1.7938-1.3951-3.3882-2.6907-1.8934-10.1647,11.4602-30.195,21.8241-55.0087,14.3501-27.1058-8.6699-42.6517-36.9715-35.377-64.4758,7.6733-28.4013-9.2678-57.6994-37.669-65.2731-27.4047-7.773-57.3008,7.9723-65.7713,39.6621-13.9515,54.8094,18.9342,113.5054,75.936,128.553v.0997Z"/>
    </g>
  </g>
</svg>